<?xml version="1.0" standalone="no"?><!DOCTYPE svg PUBLIC "-//W3C//DTD SVG 1.1//EN" "http://www.w3.org/Graphics/SVG/1.1/DTD/svg11.dtd"><svg class="icon" width="200px" height="200.00px" viewBox="0 0 1024 1024" version="1.1" xmlns="http://www.w3.org/2000/svg">
 <polyline fill="none" stroke="#000000" stroke-width="2.126" stroke-linecap="round" stroke-linejoin="round" points="
	244.924,636.654 244.924,645.434 242.596,647.025 "/>
<line fill="none" stroke="#000000" stroke-width="2.126" stroke-linecap="round" stroke-linejoin="round" x1="188.369" y1="666.721" x2="229.029" y2="643.244"/>
<line fill="none" stroke="#000000" stroke-width="1.4173" stroke-linecap="round" stroke-linejoin="round" x1="203.273" y1="661.439" x2="228.771" y2="646.717"/>
<line fill="none" stroke="#000000" stroke-width="2.126" stroke-linecap="round" stroke-linejoin="round" x1="231.497" y1="653.434" x2="177.503" y2="684.607"/>
<line fill="none" stroke="#000000" stroke-width="2.126" stroke-linecap="round" stroke-linejoin="round" x1="166.405" y1="691.016" x2="125.191" y2="714.811"/>
<path fill="none" stroke="#000000" stroke-width="2.126" stroke-linecap="round" stroke-linejoin="round" d="M164.104,680.922
	l-44.332,25.596v10.762c0,0,28.351,18.512,30.962,20.15c2.555,1.604,3.223,1.701,3.223-0.201c0-0.727,0-1.902,0-2.406
	c0-1.176,0.517-3.105-2.386-4.781s-29.937-17.285-29.937-17.285c-0.87-0.502-1.862-0.832-1.862-1.932"/>
<line fill="none" stroke="#000000" stroke-width="1.4173" stroke-linecap="round" stroke-linejoin="round" x1="139.524" y1="697.598" x2="156.46" y2="687.82"/>
<path fill="none" stroke="#000000" stroke-width="2.126" stroke-linecap="round" stroke-linejoin="round" d="
	M288.688,633.863c0,0-3.76,1.535-6.246,4.023c-2.488,2.486-2.328,3.602-1.693,6.564c0.635,2.965,4.17,15.781,13.445,21.811
	c6.451,4.191,23.186,12.492,27.314,27.104c0.428,1.512,0.945,1.893,2.104,1.225c1.158-0.67,5.578-3.221,6.684-3.859
	c1.104-0.639,1.5-1.258,0.938-2.82s-5.5-15.813-19.5-22.688c-3.365-1.652-9.707-4.244-16.021-13.801
	c-2.314-3.504-3.936-10.158-3.936-14.24C291.775,633.098,290.158,633.168,288.688,633.863z"/>
<path fill="none" stroke="#000000" stroke-width="2.126" stroke-linecap="round" stroke-linejoin="round" d="M224.979,485.227
	c0,0-4.651-2.686-6.316-3.646c-1.666-0.963-5.651-3.451-6.893-5.234c-1.242-1.781-1.575-2.66-2.485-3.186s-1.421-0.82-1.421-0.82
	s5.272-3.045,6.131-3.541s0.962-0.285,1.557,1.227s0.999,1.646,2.755,3.402s10.102,7.186,10.102,7.186"/>
<line fill="none" stroke="#000000" stroke-width="1.4173" stroke-linecap="round" stroke-linejoin="round" x1="209.884" y1="473.631" x2="215.661" y2="470.295"/>
<line fill="none" stroke="#000000" stroke-width="1.4173" stroke-linecap="round" stroke-linejoin="round" x1="217.045" y1="478.473" x2="219.967" y2="476.787"/>
<path fill="none" stroke="#000000" stroke-width="2.126" stroke-linecap="round" stroke-linejoin="round" d="
	M228.039,481.146c0,0-1.853,1.07-2.54,1.467s-0.687,1.119-0.687,2.168s0,3.145,0,3.912c0,0.77,0.735,1.211,1.969,1.953
	c1.328,0.797,2.576,1.604,3.91,2.719c1.182,0.988,1.917,1.648,2.5,6.316c0.583,4.666,3.792,9.541,10.667,38.291
	c0.35,1.461,0.873,2.588,0.202,4.197s-1.374,2.314-1.374,3.789s0,3.756,0,3.756s3.484,2.992,4.056,3.453
	c0.966,0.777,0.98,0.426,2.874,0.426s2.613-0.518,4.104-1.58c1.585-1.127,2.571-1.939,2.571-4.33c0-5.012-1.808-5.727-3.308-14.461
	c-1.17-6.814-3.963-14.111-11.958-43.957c-1.078-4.025-3.415-7.139-6.127-8.023S230.413,479.775,228.039,481.146z"/>
<path fill="none" stroke="#000000" stroke-width="1.4173" stroke-linecap="round" stroke-linejoin="round" d="M249.997,553.584
	c0-6.109-2.21-7.977-3.71-16.711c-1.17-6.814-3.963-14.111-11.958-43.957c-1.078-4.025-2.009-5.857-6.127-8.023l-3.28-1.514"/>
<path fill="none" stroke="#000000" stroke-width="2.126" stroke-linecap="round" stroke-linejoin="round" d="M247.137,553.453
	c0,0,0,7.016,0,9.787c0,2.773-0.053,4.033,1.333,7.561c1.386,3.529,1.593,4.404,2.046,5.732c0.453,1.326,1.285,1.375,3.496,0.098
	c0.872-0.504,3.588-2.072,4.527-2.615c0.939-0.541-0.87-1.543-1.87-4.105s-2.375-3.75-2.375-6.625s0-11.689,0-11.689"/>
<line fill="none" stroke="#000000" stroke-width="1.4173" stroke-linecap="round" stroke-linejoin="round" x1="252.691" y1="563.932" x2="248.51" y2="566.346"/>
<line fill="none" stroke="#000000" stroke-width="1.4173" stroke-linecap="round" stroke-linejoin="round" x1="257.525" y1="571.57" x2="252.019" y2="574.75"/>
<path fill="none" stroke="#000000" stroke-width="2.126" stroke-linecap="round" stroke-linejoin="round" d="M397.773,355.004
	c1.736,1.913,4.375,3.762,8.977,3.762c4.529,0,6.479,1.015,7.578,3.468"/>
<path fill="none" stroke="#000000" stroke-width="2.126" stroke-linecap="round" stroke-linejoin="round" d="M400.721,349.952
	c1.734,1.913,4.375,3.762,8.977,3.762c4.529,0,6.477,1.015,7.578,3.468"/>
<path fill="none" stroke="#000000" stroke-width="2.126" stroke-linecap="round" stroke-linejoin="round" d="M399.758,356.764
	c0,0-4.783,5.247-13.172,11.708c-8.387,6.461-24.824,15.076-24.824,15.076s5.781,1.474,8.389,2.154s3.418,0.111,5.646-1.175
	c2.227-1.286,20.611-12.043,34.096-25.526"/>
<line fill="none" stroke="#000000" stroke-width="1.4173" stroke-linecap="round" stroke-linejoin="round" x1="361.762" y1="383.547" x2="377.457" y2="383.547"/>
<line fill="none" stroke="#000000" stroke-width="1.4173" stroke-linecap="round" stroke-linejoin="round" x1="365.926" y1="381.3" x2="381.109" y2="381.3"/>
<line fill="none" stroke="#000000" stroke-width="1.4173" stroke-linecap="round" stroke-linejoin="round" x1="369.943" y1="379.052" x2="384.598" y2="379.052"/>
<line fill="none" stroke="#000000" stroke-width="1.4173" stroke-linecap="round" stroke-linejoin="round" x1="373.826" y1="376.805" x2="387.943" y2="376.805"/>
<line fill="none" stroke="#000000" stroke-width="1.4173" stroke-linecap="round" stroke-linejoin="round" x1="377.559" y1="374.557" x2="391.156" y2="374.557"/>
<line fill="none" stroke="#000000" stroke-width="1.4173" stroke-linecap="round" stroke-linejoin="round" x1="381.107" y1="372.31" x2="393.172" y2="372.31"/>
<line fill="none" stroke="#000000" stroke-width="1.4173" stroke-linecap="round" stroke-linejoin="round" x1="384.424" y1="370.062" x2="391.422" y2="370.062"/>
<line fill="none" stroke="#000000" stroke-width="1.4173" stroke-linecap="round" stroke-linejoin="round" x1="367.711" y1="380.31" x2="367.711" y2="385.071"/>
<line fill="none" stroke="#000000" stroke-width="1.4173" stroke-linecap="round" stroke-linejoin="round" x1="370.471" y1="378.748" x2="370.471" y2="385.78"/>
<line fill="none" stroke="#000000" stroke-width="1.4173" stroke-linecap="round" stroke-linejoin="round" x1="373.205" y1="385.822" x2="373.205" y2="377.17"/>
<line fill="none" stroke="#000000" stroke-width="1.4173" stroke-linecap="round" stroke-linejoin="round" x1="376.297" y1="375.328" x2="376.297" y2="384.235"/>
<line fill="none" stroke="#000000" stroke-width="1.4173" stroke-linecap="round" stroke-linejoin="round" x1="379.416" y1="382.356" x2="379.416" y2="373.396"/>
<line fill="none" stroke="#000000" stroke-width="1.4173" stroke-linecap="round" stroke-linejoin="round" x1="382.508" y1="371.383" x2="382.508" y2="380.036"/>
<line fill="none" stroke="#000000" stroke-width="1.4173" stroke-linecap="round" stroke-linejoin="round" x1="384.988" y1="378.794" x2="384.988" y2="369.66"/>
<line fill="none" stroke="#000000" stroke-width="1.4173" stroke-linecap="round" stroke-linejoin="round" x1="387.033" y1="368.126" x2="387.033" y2="377.425"/>
<line fill="none" stroke="#000000" stroke-width="1.4173" stroke-linecap="round" stroke-linejoin="round" x1="390.182" y1="375.249" x2="390.182" y2="368.786"/>
<path fill="none" stroke="#000000" stroke-width="2.126" stroke-linecap="round" stroke-linejoin="round" d="M404.619,352.768
	c5.17-5.17,24.023-19.614,38.879-26.953c1.34-0.662,0.26-2.893,2.35-4.982s4.396-4.398,5.248-5.249
	c0.85-0.851,1.625-1.736,3.451-0.681c1.828,1.055,5.162,2.98,7.387,4.265s2.721,1.616,2.236,3.366
	c-0.486,1.75-1.129,1.961-2.867,2.965s-3.516,2.028-4.986,2.878c-1.473,0.85-1.6,1.25-5.1,1.25"/>
<path fill="none" stroke="#000000" stroke-width="2.126" stroke-linecap="round" stroke-linejoin="round" d="M451.096,315.583
	c0,0-2.582,4.525-4.422,6.366c-0.826,0.827-0.195,1.317,1.313,2.188s3.08,1.778,4.01,2.314s1.725,0.456,2.795-1.294
	c1.068-1.75,3.18-5.133,6.256-6.503"/>
<path fill="none" stroke="#000000" stroke-width="1.4173" stroke-linecap="round" stroke-linejoin="round" d="M444.201,324.833
	c0.492-0.491,1.982-1.737,4.143-0.491"/>
<path fill="none" stroke="#000000" stroke-width="2.126" stroke-linecap="round" stroke-linejoin="round" d="M452.314,326.61
	c0.949,0.949,0.775,2.193-2.189,3.603s-18.127,7.776-34.904,24.554"/>
<line fill="none" stroke="#000000" stroke-width="1.4173" stroke-linecap="round" stroke-linejoin="round" x1="441.527" y1="326.818" x2="452.498" y2="326.818"/>
<line fill="none" stroke="#000000" stroke-width="1.4173" stroke-linecap="round" stroke-linejoin="round" x1="436.523" y1="329.588" x2="451.273" y2="329.588"/>
<line fill="none" stroke="#000000" stroke-width="1.4173" stroke-linecap="round" stroke-linejoin="round" x1="432.234" y1="332.176" x2="445.732" y2="332.176"/>
<line fill="none" stroke="#000000" stroke-width="1.4173" stroke-linecap="round" stroke-linejoin="round" x1="427.445" y1="335.26" x2="440.297" y2="335.26"/>
<line fill="none" stroke="#000000" stroke-width="1.4173" stroke-linecap="round" stroke-linejoin="round" x1="422.654" y1="338.344" x2="435.309" y2="338.344"/>
<line fill="none" stroke="#000000" stroke-width="1.4173" stroke-linecap="round" stroke-linejoin="round" x1="424.732" y1="340.52" x2="432.104" y2="340.52"/>
<line fill="none" stroke="#000000" stroke-width="1.4173" stroke-linecap="round" stroke-linejoin="round" x1="428.502" y1="334.563" x2="428.502" y2="343.153"/>
<line fill="none" stroke="#000000" stroke-width="1.4173" stroke-linecap="round" stroke-linejoin="round" x1="430.857" y1="341.409" x2="430.857" y2="333.043"/>
<line fill="none" stroke="#000000" stroke-width="1.4173" stroke-linecap="round" stroke-linejoin="round" x1="433.783" y1="331.221" x2="433.783" y2="339.36"/>
<line fill="none" stroke="#000000" stroke-width="1.4173" stroke-linecap="round" stroke-linejoin="round" x1="436.578" y1="337.525" x2="436.578" y2="330.036"/>
<line fill="none" stroke="#000000" stroke-width="1.4173" stroke-linecap="round" stroke-linejoin="round" x1="438.635" y1="328.383" x2="438.635" y2="336.247"/>
<line fill="none" stroke="#000000" stroke-width="1.4173" stroke-linecap="round" stroke-linejoin="round" x1="441.502" y1="334.569" x2="441.502" y2="327.098"/>
<line fill="none" stroke="#000000" stroke-width="1.4173" stroke-linecap="round" stroke-linejoin="round" x1="443.703" y1="325.687" x2="443.703" y2="333.36"/>
<line fill="none" stroke="#000000" stroke-width="1.4173" stroke-linecap="round" stroke-linejoin="round" x1="446.291" y1="332.028" x2="446.291" y2="324.036"/>
<line fill="none" stroke="#000000" stroke-width="1.4173" stroke-linecap="round" stroke-linejoin="round" x1="449.074" y1="324.765" x2="449.074" y2="330.699"/>
<path fill="none" stroke="#000000" stroke-width="1.4173" stroke-linecap="round" stroke-linejoin="round" d="M204.096,320.841
	c0,0-2.582,4.525-4.421,6.366c-0.826,0.827-0.195,1.317,1.313,2.188s3.079,1.778,4.009,2.314s1.726,0.456,2.795-1.294
	s3.181-5.133,6.256-6.503"/>
<path fill="none" stroke="#000000" stroke-width="1.4173" stroke-linecap="round" stroke-linejoin="round" d="M197.203,330.09
	c0.491-0.491,1.982-1.737,4.142-0.491"/>
<path fill="none" stroke="#000000" stroke-width="2.126" stroke-linecap="round" stroke-linejoin="round" d="M205.315,331.867
	c0.949,0.949,0.775,2.193-2.189,3.603s-14.599,8.898-37.297,24.554c-6.122,4.222-16.041,12.082-20.158,18.819
	c-2.196,3.593-1.283,3.742,0.608,4.833s3.08,0.735,5.017-3.265s3.063-7.5,10.087-17.156"/>
<line fill="none" stroke="#000000" stroke-width="1.4173" stroke-linecap="round" stroke-linejoin="round" x1="194.528" y1="332.075" x2="205.499" y2="332.075"/>
<line fill="none" stroke="#000000" stroke-width="1.4173" stroke-linecap="round" stroke-linejoin="round" x1="189.525" y1="334.845" x2="204.274" y2="334.845"/>
<line fill="none" stroke="#000000" stroke-width="1.4173" stroke-linecap="round" stroke-linejoin="round" x1="185.236" y1="337.434" x2="198.734" y2="337.434"/>
<line fill="none" stroke="#000000" stroke-width="1.4173" stroke-linecap="round" stroke-linejoin="round" x1="180.446" y1="340.518" x2="193.297" y2="340.518"/>
<line fill="none" stroke="#000000" stroke-width="1.4173" stroke-linecap="round" stroke-linejoin="round" x1="175.656" y1="343.602" x2="188.31" y2="343.602"/>
<line fill="none" stroke="#000000" stroke-width="1.4173" stroke-linecap="round" stroke-linejoin="round" x1="177.734" y1="345.777" x2="185.105" y2="345.777"/>
<line fill="none" stroke="#000000" stroke-width="1.4173" stroke-linecap="round" stroke-linejoin="round" x1="181.502" y1="339.821" x2="181.502" y2="348.411"/>
<line fill="none" stroke="#000000" stroke-width="1.4173" stroke-linecap="round" stroke-linejoin="round" x1="183.858" y1="346.667" x2="183.858" y2="338.301"/>
<line fill="none" stroke="#000000" stroke-width="1.4173" stroke-linecap="round" stroke-linejoin="round" x1="186.785" y1="336.479" x2="186.785" y2="344.618"/>
<line fill="none" stroke="#000000" stroke-width="1.4173" stroke-linecap="round" stroke-linejoin="round" x1="189.58" y1="342.782" x2="189.58" y2="335.293"/>
<line fill="none" stroke="#000000" stroke-width="1.4173" stroke-linecap="round" stroke-linejoin="round" x1="191.636" y1="333.641" x2="191.636" y2="341.504"/>
<line fill="none" stroke="#000000" stroke-width="1.4173" stroke-linecap="round" stroke-linejoin="round" x1="194.502" y1="339.826" x2="194.502" y2="332.355"/>
<line fill="none" stroke="#000000" stroke-width="1.4173" stroke-linecap="round" stroke-linejoin="round" x1="196.705" y1="330.944" x2="196.705" y2="338.617"/>
<line fill="none" stroke="#000000" stroke-width="1.4173" stroke-linecap="round" stroke-linejoin="round" x1="199.292" y1="337.286" x2="199.292" y2="329.293"/>
<line fill="none" stroke="#000000" stroke-width="1.4173" stroke-linecap="round" stroke-linejoin="round" x1="202.076" y1="330.022" x2="202.076" y2="335.957"/>
<path fill="none" stroke="#000000" stroke-width="2.126" stroke-linecap="round" stroke-linejoin="round" d="M145.005,382.909
	c0,0-6.339-2.707-8.397-3.895s-1.333-3.5,1.75-7.583s6.833-8.083,15.978-14.765c16.252-11.875,27.309-18.255,42.163-25.594
	c1.34-0.662,0.26-2.893,2.35-4.982s4.397-4.398,5.248-5.249s1.625-1.736,3.452-0.681s5.162,2.98,7.387,4.265
	s2.721,1.616,2.235,3.366s-1.129,1.961-2.867,2.965s-3.515,2.028-4.986,2.878s-1.6,1.25-5.099,1.25"/>
<path fill="none" stroke="#000000" stroke-width="2.126" stroke-linecap="round" stroke-linejoin="round" d="M217.17,327.79
	c0,0,42.01-21.624,48.258-24.123c6.249-2.5,12.837-3.635,16.927,0.455c2.053,2.052,1.748,3.127,0.229,3.863
	c-1.303,0.63-3.02,0.479-5.791-1.121c-2.77-1.6-6.858-3.747-15.327-1.397"/>
<path fill="none" stroke="#000000" stroke-width="2.126" stroke-linecap="round" stroke-linejoin="round" d="M210.497,321.862
	c0,0,31.008-16.759,48.103-23.454c5.258-2.059,12.509-1.206,20.652,3.708"/>
<line fill="none" stroke="#000000" stroke-width="1.4173" stroke-linecap="round" stroke-linejoin="round" x1="240.358" y1="309.973" x2="252.263" y2="309.973"/>
<line fill="none" stroke="#000000" stroke-width="1.4173" stroke-linecap="round" stroke-linejoin="round" x1="242.108" y1="307.348" x2="257.576" y2="307.348"/>
<line fill="none" stroke="#000000" stroke-width="1.4173" stroke-linecap="round" stroke-linejoin="round" x1="244.116" y1="304.782" x2="262.918" y2="304.782"/>
<line fill="none" stroke="#000000" stroke-width="1.4173" stroke-linecap="round" stroke-linejoin="round" x1="249.707" y1="302.196" x2="269.799" y2="302.196"/>
<line fill="none" stroke="#000000" stroke-width="1.4173" stroke-linecap="round" stroke-linejoin="round" x1="255.169" y1="299.806" x2="274.848" y2="299.806"/>
<line fill="none" stroke="#000000" stroke-width="1.4173" stroke-linecap="round" stroke-linejoin="round" x1="272.523" y1="298.875" x2="272.523" y2="301.624"/>
<line fill="none" stroke="#000000" stroke-width="1.4173" stroke-linecap="round" stroke-linejoin="round" x1="269.567" y1="297.995" x2="269.567" y2="302.196"/>
<line fill="none" stroke="#000000" stroke-width="1.4173" stroke-linecap="round" stroke-linejoin="round" x1="266.593" y1="297.479" x2="266.593" y2="303.22"/>
<line fill="none" stroke="#000000" stroke-width="1.4173" stroke-linecap="round" stroke-linejoin="round" x1="263.656" y1="297.38" x2="263.656" y2="304.441"/>
<line fill="none" stroke="#000000" stroke-width="1.4173" stroke-linecap="round" stroke-linejoin="round" x1="261.076" y1="297.688" x2="261.076" y2="305.652"/>
<line fill="none" stroke="#000000" stroke-width="1.4173" stroke-linecap="round" stroke-linejoin="round" x1="258.6" y1="298.408" x2="258.6" y2="306.848"/>
<line fill="none" stroke="#000000" stroke-width="1.4173" stroke-linecap="round" stroke-linejoin="round" x1="255.923" y1="299.491" x2="255.923" y2="308.16"/>
<line fill="none" stroke="#000000" stroke-width="1.4173" stroke-linecap="round" stroke-linejoin="round" x1="253.044" y1="300.716" x2="253.044" y2="309.584"/>
<line fill="none" stroke="#000000" stroke-width="1.4173" stroke-linecap="round" stroke-linejoin="round" x1="250.512" y1="301.834" x2="250.512" y2="310.846"/>
<line fill="none" stroke="#000000" stroke-width="1.4173" stroke-linecap="round" stroke-linejoin="round" x1="247.859" y1="312.174" x2="247.859" y2="303.038"/>
<line fill="none" stroke="#000000" stroke-width="1.4173" stroke-linecap="round" stroke-linejoin="round" x1="244.735" y1="304.49" x2="244.735" y2="313.746"/>
<line fill="none" stroke="#000000" stroke-width="2.126" stroke-linecap="round" stroke-linejoin="round" x1="266.954" y1="52.127" x2="401.332" y2="100.835"/>
<path fill="none" stroke="#000000" stroke-width="2.126" stroke-linecap="round" stroke-linejoin="round" d="M228.144,134.076
	c-5.091-2.153-10.236-4.33-15.29-6.468"/>
<path fill="none" stroke="#000000" stroke-width="2.126" stroke-linecap="round" stroke-linejoin="round" d="
	M250.511,138.398c16.944,7.221,30.085,12.804,31.155,13.195c3.143,1.147,4.941,2.115,8.066,2.115s14.242,0,16.973,0
	c2.729,0,4.395,0.127,7.402-1.609s83.996-49.384,85.67-50.351c1.676-0.967,2.332-1.524,3.289-1.316
	c0.959,0.208,1.959,0.375,3.293,0.875s1.281,1.645,1.281,1.999c0,0.985-0.002,0.986-0.977,1.574
	c-1.881,1.135-81.613,47.12-85.682,49.468s-9.457,3.539-13.291,3.539c-3.832,0-16.725,0-19.09,0s-3.395-0.052-5.744-0.789
	c-0.803-0.252-20.145-8.408-43.131-18.125"/>
<path fill="none" stroke="#000000" stroke-width="2.126" stroke-linecap="round" stroke-linejoin="round" d="M210.426,121.3
	c8.607,3.672,17.724,7.563,26.459,11.289"/>
<path fill="none" stroke="#000000" stroke-width="1.4173" stroke-linecap="round" stroke-linejoin="round" d="M168.241,99.645
	c0,0-0.102-2.159-6.072-2.441"/>
<path fill="none" stroke="#000000" stroke-width="1.4173" stroke-linecap="round" stroke-linejoin="round" d="M161.247,105.252
	c0,0,3.347-0.746,6.416-2.517"/>
<path fill="none" stroke="#000000" stroke-width="1.4173" stroke-linecap="round" stroke-linejoin="round" d="M287.596,153.539
	c0,0-1.152,1.254-1.152,4.298"/>
<path fill="none" stroke="#000000" stroke-width="1.4173" stroke-linecap="round" stroke-linejoin="round" d="M312.002,153.104
	c0,0-0.197,3.752,2.773,3.752"/>
<path fill="none" stroke="#000000" stroke-width="2.126" stroke-linecap="round" stroke-linejoin="round" d="M198.845,84.492
	c0,0,18.335,6.972,19.789,7.583c1.874,0.788,1.157,1.388-0.984,2.296s-21.073,9.563-22.292,10.102
	c-1.678,0.742-3.109,1.077-5.241,0.168s-17.598-7.639-17.598-7.639"/>
<path fill="#FFFFFF" stroke="#000000" stroke-width="1.4173" stroke-linecap="round" stroke-linejoin="round" d="M179.446,93.71
	c0,0,0.647,0.374,2.028,1.171s2.223,1.029,3.279,0.419s11.085-5.284,12.075-5.855s-0.023-1.155-2.71-2.707"/>
<path fill="none" stroke="#000000" stroke-width="2.126" stroke-linecap="round" stroke-linejoin="round" d="M167.901,93.606
	c-1.131-0.653-2.969-2.818-3.396-5.014c-0.291-1.496,0.666-1.677,1.027-1.886s2.028-0.344,3.919-1.238s12.013-4.979,13.415-5.613
	s1.887-0.71,3.646,0.306s4.306,2.486,4.306,2.486"/>
<path fill="none" stroke="#000000" stroke-width="1.4173" stroke-linecap="round" stroke-linejoin="round" d="M186.483,82.265
	c0,0-11.291,5.125-12.958,5.792s-4.418,0.857-5.542,0.208s-1.566-1.681-2.575-1.486"/>
<path fill="none" stroke="#000000" stroke-width="2.126" stroke-linecap="round" stroke-linejoin="round" d="M248.908,92.551
	c18.703,7.621,40.016,16.026,51.365,19.547c16.574,5.142,27.59,8.163,51.953,17.603"/>
<path fill="none" stroke="#000000" stroke-width="2.126" stroke-linecap="round" stroke-linejoin="round" d="M213.163,77.688
	c0,0,14.352,6.107,31.913,13.297"/>
<path fill="none" stroke="#000000" stroke-width="2.126" stroke-linecap="round" stroke-linejoin="round" d="M246.738,95.377
	c18.194,7.394,38.391,15.325,49.33,18.719c16.574,5.142,27.996,8.397,52.361,17.838"/>
<path fill="none" stroke="#000000" stroke-width="2.126" stroke-linecap="round" stroke-linejoin="round" d="M208.958,79.687
	c0,0,14.977,6.373,33.052,13.763"/>
<path fill="none" stroke="#000000" stroke-width="1.4173" stroke-linecap="round" stroke-linejoin="round" d="M247.617,94.087
	c18.369,7.472,38.995,15.585,50.112,19.034c16.574,5.142,27.994,8.397,52.359,17.838"/>
<path fill="none" stroke="#000000" stroke-width="1.4173" stroke-linecap="round" stroke-linejoin="round" d="M210.825,78.799
	c0,0,14.527,6.182,32.224,13.423"/>
<path fill="none" stroke="#000000" stroke-width="2.126" stroke-linecap="round" stroke-linejoin="round" d="M256.584,138.217
	c4.536,2.092,9.003,4.193,13.273,6.256c2.261,1.092,4.417,2.807,8.302,0.564s9.703-4.592,10.955-5.315
	c1.254-0.723,1.242-1.291,1.242-2.624"/>
<path fill="none" stroke="#000000" stroke-width="2.126" stroke-linecap="round" stroke-linejoin="round" d="M210.324,117.922
	c8.769,3.687,20.34,8.639,32.345,13.99"/>
<path fill="none" stroke="#000000" stroke-width="2.126" stroke-linecap="round" stroke-linejoin="round" d="M240.311,97.224
	c-4.001-1.569-6.576-2.623-6.988-2.86c-2.176-1.256-3.138-1.649-5.458-0.612c-1.317,0.589-33.612,16.752-33.612,16.752
	s-1.097,0.464,0.496,1.009c0.502,0.172,5.03,2.002,11.98,4.904"/>
<path fill="none" stroke="#000000" stroke-width="2.126" stroke-linecap="round" stroke-linejoin="round" d="M306.15,128.541
	c0,0,3.135-2.136,6.438-4.042c3.301-1.906,1.375-2.153-0.105-2.401c-10.842-1.813-49.446-16.078-68.468-23.432"/>
<path fill="none" stroke="#000000" stroke-width="1.4173" stroke-linecap="round" stroke-linejoin="round" d="M287.525,137.598
	c0,0-8.975,5.181-10.465,6.042s-2.201,0.708-4.16-0.25s-11.459-5.25-11.459-5.25"/>
<path fill="none" stroke="#000000" stroke-width="2.126" stroke-linecap="round" stroke-linejoin="round" d="M233.54,111.072
	c20.339,7.897,53.317,20.359,53.317,20.359"/>
<path fill="none" stroke="#000000" stroke-width="2.126" stroke-linecap="round" stroke-linejoin="round" d="M207.432,114.635
	c-2.963-1.255-5.667-2.369-7.903-3.242c-1.071-0.418-2.526-1.051,0.44-2.01s11.112-4.521,12.723-5.452s2.346-0.83,5.328,0.891
	c0.722,0.417,5.126,2.19,11.389,4.64"/>
<path fill="none" stroke="#000000" stroke-width="2.126" stroke-linecap="round" stroke-linejoin="round" d="M245.483,131.598
	c0,0-19.639-9.056-34.846-15.594"/>
<path fill="none" stroke="#000000" stroke-width="2.126" stroke-linecap="round" stroke-linejoin="round" d="M242.63,100.466
	c19.336,7.167,58.374,21.419,67.5,22.859c0,0-4.623,3.829-8.859,6.274"/>
<path fill="none" stroke="#000000" stroke-width="2.126" stroke-linecap="round" stroke-linejoin="round" d="M230.917,107.806
	c-6.237-2.591-11.084-4.739-13.216-5.97c0,0,9.128-4.771,10.266-5.428s1.83-0.7,3.767,0c0.374,0.135,3.067,1.147,7.259,2.707"/>
<path fill="none" stroke="#000000" stroke-width="2.126" stroke-linecap="round" stroke-linejoin="round" d="M290.693,131.039
	c0,0-33.719-12.596-55.688-21.552"/>
<path fill="none" stroke="#000000" stroke-width="1.4173" stroke-linecap="round" stroke-linejoin="round" d="M262.428,107.72
	c0,0-2.932,2.313-10.774,8.003"/>
<path fill="none" stroke="#000000" stroke-width="1.4173" stroke-linecap="round" stroke-linejoin="round" d="M247.545,118.223
	c0,0-12.749,8.074-15.218,7.381"/>
<line fill="none" stroke="#000000" stroke-width="1.4173" stroke-linecap="round" stroke-linejoin="round" x1="288.135" y1="116.768" x2="276.498" y2="125.683"/>
<path fill="none" stroke="#000000" stroke-width="2.126" stroke-linecap="round" stroke-linejoin="round" d="M218.831,135.61
	c0,0-3.515-4.97-4.806-6.262c-4.083-4.083-4.537-11.776-2.75-15.083s4.271-3.852,5.775-4.423c2.642-1.001,4.507,3.443,4.82,5.196
	s2.578,1.26,5.013,0.913s3.142-1.269,3.809-1.936c11.083-11.083,18.742-22.899,18.742-22.899l-1.236-0.713
	c0,0-3.634,0.631-5.353,2.35s-0.821,3.735-7.322,10.236c-4.497,4.497-7.358,7.957-8.815,9.414c-0.984,0.984-1.423,1.044-2.368,1.044
	s-1.592-0.249-2.089-1.393s-1.244-3.73-4.327-3.73s-5.534,0.244-7.815,2.525s-6.583,7.977-2.417,20.727
	c0.639,1.956,2.573,4.32,4.5,5.94c1.713,1.441,2.854,1.396,2.854,1.396"/>
<path fill="none" stroke="#000000" stroke-width="1.4173" stroke-linecap="round" stroke-linejoin="round" d="M223.093,116.217
	c-1.378,0-3.184,0.553-5.39-1.18c-1.209-0.95-4.099-3.562-4.099-3.562"/>
<path fill="none" stroke="#000000" stroke-width="2.126" stroke-linecap="round" stroke-linejoin="round" d="M221.151,142.058
	c0,1.551-0.012,2.478-1.819,3.299c-1.351,0.614-2.224,0.085-2.787-0.821s-1.438-2.5-1.688-4.25s0.589-2.722,2.042-3.729
	c1.552-1.076,4.021-1.208,6.583-1.583s15.042-3.375,25.625-3.375s12.25,1.375,20,1.375c7.75,0,27.728-1.854,48.125-6.625
	c1.568-0.367,3.654-1.004,4.494,0.48c0.842,1.484,2.754,3.566-1.15,4.208c-3.559,0.585-15.301,3.063-20.885,4.396
	s-12.309,2.669-18.301,2.669s-57.366-0.919-62.283,5.331"/>
<path fill="none" stroke="#000000" stroke-width="1.4173" stroke-linecap="round" stroke-linejoin="round" d="M216.827,144.92
	c-0.622-0.959-0.736-2.155,1.864-3.656s7.31-2.943,17.252-3.891s17.04-0.901,28.54-0.901"/>
<path fill="none" stroke="#000000" stroke-width="1.4173" stroke-linecap="round" stroke-linejoin="round" d="M284.107,136.223
	c0,0,10.875,0.125,27-4.75"/>
<path fill="none" stroke="#000000" stroke-width="1.4173" stroke-linecap="round" stroke-linejoin="round" d="M211.948,113.186
	c-2.097,1.9-4.976,10.23,0.327,16.996"/>
<path fill="none" stroke="#000000" stroke-width="1.4173" stroke-linecap="round" stroke-linejoin="round" d="M248.516,90.586
	c-1.075,0.252-1.971,1.699-3.721,4.574s-6.75,8.688-9.063,11s-3,3.375-3.5,4.813"/>
<path fill="none" stroke="#000000" stroke-width="2.126" stroke-linecap="round" stroke-linejoin="round" d="
	M206.128,124.762c-23.704-10.029-43.798-18.531-44.17-18.643c-0.634-0.19-0.729-0.438-0.729-1.354s0-2.146,0-5.182
	s3.588-4.19,7.129-6.235s90.737-42.544,92.789-43.474c2.486-1.126,5.807,2.253,5.807,2.253l-96.77,45.985
	c-1.547,0.894-2.248,1.67-2.615,2.75c-0.483,1.419-0.036,2.347,1.789,2.987c0.761,0.267,16.902,7.143,36.727,15.6"/>
<path fill="none" d="M211.112,121.593c0,0-0.152,3.826,2.254,6.231l14.113,5.971c0,0,6.408-0.729,8.985-1.386"/>
<line fill="none" stroke="#000000" stroke-width="1.4173" stroke-linecap="round" stroke-linejoin="round" x1="323.82" y1="245.517" x2="320.756" y2="243.747"/>
<path fill="none" stroke="#000000" stroke-width="2.126" stroke-linecap="round" stroke-linejoin="round" d="M329.197,233.126
	c0.225-0.986-0.354-2.258-2.121-3.278c-2.678-1.546-6.688-4.06-8.834-5.299c-2.148-1.24-3.947-1.232-6.385,0.487
	c-1.986,1.401-4.844,3.469-7.188,5.813"/>
<path fill="none" stroke="#000000" stroke-width="1.4173" stroke-linecap="round" stroke-linejoin="round" d="M323.404,238.182
	c0,0,3.422-3.004,4.859-3.833c0.488-0.282,0.816-0.714,0.934-1.222"/>
<line fill="none" stroke="#000000" stroke-width="2.126" stroke-linecap="round" stroke-linejoin="round" x1="329.191" y1="233.124" x2="329.191" y2="243.598"/>
<line fill="none" stroke="#000000" stroke-width="2.126" stroke-linecap="round" stroke-linejoin="round" x1="312.303" y1="232.729" x2="319.152" y2="228.774"/>
<line fill="none" stroke="#000000" stroke-width="1.4173" stroke-linecap="round" stroke-linejoin="round" x1="324.152" y1="230.811" x2="324.152" y2="234.743"/>
<line fill="none" stroke="#000000" stroke-width="1.4173" stroke-linecap="round" stroke-linejoin="round" x1="321.412" y1="236.528" x2="313.566" y2="231.998"/>
<line fill="none" stroke="#000000" stroke-width="1.4173" stroke-linecap="round" stroke-linejoin="round" x1="323.504" y1="235.165" x2="315.658" y2="230.635"/>
<path fill="none" stroke="#000000" stroke-width="2.126" stroke-linecap="round" stroke-linejoin="round" d="M306.344,229.289
	c0,0-1.699-0.981-3.48-2.01c-1.783-1.029-1.928-1.772,0.078-2.93c2.004-1.158,8.191-4.729,8.191-4.729"/>
<path fill="none" stroke="#000000" stroke-width="2.126" stroke-linecap="round" stroke-linejoin="round" d="M302.385,236.283
	c0,0-5.904-3.409-8.291-4.788c-2.389-1.378-3.59-6.957,2.514-10.48s13.051-7.534,13.051-7.534"/>
<path fill="none" stroke="#000000" stroke-width="2.126" stroke-linecap="round" stroke-linejoin="round" d="M311.133,225.551
	c0,0,0-1.859,0-3.429s0.055-3.745-0.85-6.884c-0.906-3.14-3.201-5.978-1.57-9.118s4.395-5.709,3.145-10.334
	c-0.645-2.387-0.125-3.313,2.625-4.938s114.834-64.928,114.834-64.928"/>
<path fill="none" stroke="#000000" stroke-width="1.4173" stroke-linecap="round" stroke-linejoin="round" d="M313.199,194.316
	c1.021,2.136,2.322,5.574-0.371,9.011s-2.691,4.45-1.313,7.9c1.381,3.45,2.834,7.16,2.834,12.582"/>
<path fill="none" stroke="#000000" stroke-width="2.126" stroke-linecap="round" stroke-linejoin="round" d="M340.771,237.042
	c-1.557,1.557-5.803,5.352-6.922,0.059s-1.424-6.209-2.035-9.059s2.238-2.138,2.238-9.669c0-4.682-1.018-8.652,3.563-9.67
	s6.887-1.014,12.242-4.106s130.664-73.718,133.75-75.5c3.088-1.782,1.639-3.924-0.531-5.177s-2.014-1.797-6.832-3.38
	s-10.828-3.393-10.828-3.393"/>
<path fill="none" stroke="#000000" stroke-width="2.126" stroke-linecap="round" stroke-linejoin="round" d="M335.424,239.668
	c0,0-1.465-1.611-6.232-0.521"/>
<path fill="none" stroke="#000000" stroke-width="2.126" stroke-linecap="round" stroke-linejoin="round" d="M332.941,238.803
	c0,0-4.166-4.75-4.166-9.196s0.324-5.882,1.482-7.04s1.111-2.038,1.111-4.631s0-2.594,0-6.669s2.037-5.002,5.557-5.743
	c3.521-0.741,7.533-0.136,11.951-2.687c4.416-2.55,135.807-77.631,135.807-77.631"/>
<path fill="none" stroke="#000000" stroke-width="2.126" stroke-linecap="round" stroke-linejoin="round" d="M312.59,214.023
	c0,0,11.479-6.627,13.607-7.856c3.617-2.088,5.016,1.861,11.244-1.735c4.584-2.646,136.668-77.062,138.582-78.167
	s3.486-1.575,7.76-0.544"/>
<path fill="none" stroke="#000000" stroke-width="2.126" stroke-linecap="round" stroke-linejoin="round" d="M333.201,223.949
	c0,0,8.352-4.822,14.061-8.118s9.625,2.349,17.891-2.422c8.264-4.771,91.502-54.854,94.092-56.349s3.188-1.679,4.982-0.643
	s3.307,1.605,5.947,0.081s7.395-4.902,8.693-24.714"/>
<path fill="none" stroke="#000000" stroke-width="1.4173" stroke-linecap="round" stroke-linejoin="round" d="M349.541,220.348
	c0,0,4.715-1.459,4.715,3.817c0,2.47,0.025,4.407-1.213,5.646"/>
<path fill="none" stroke="#000000" stroke-width="2.126" stroke-linecap="round" stroke-linejoin="round" d="M351.008,231.236
	c1.475,1.987,4.1,4.425,6.162,2.362c1.084-1.084,2.193-2.004,2.693-2.503c0.498-0.5,1.057-0.497,2.029,0.064
	c0.971,0.561,1.707,0.741,3.318-0.547c1.609-1.289,92.314-57.68,92.314-57.68"/>
<path fill="none" stroke="#000000" stroke-width="1.4173" stroke-linecap="round" stroke-linejoin="round" d="M463.264,155.941
	c1.848-1.847,5.699-1.925,7.938-0.095"/>
<line fill="none" stroke="#000000" stroke-width="1.4173" stroke-linecap="round" stroke-linejoin="round" x1="344.645" y1="204.49" x2="344.645" y2="207.054"/>
<path fill="none" stroke="#000000" stroke-width="2.126" stroke-linecap="round" stroke-linejoin="round" d="M347.154,206.027
	c-1.637,1.637-10.113,9.113-13.172,7.347"/>
<path fill="none" stroke="#000000" stroke-width="2.126" stroke-linecap="round" stroke-linejoin="round" d="M349.264,204.931
	c2.756,0.747,7.393,1.51,14.908-2.16c6.15-3.002,85.379-50.523,86.936-51.423c1.559-0.899,6.311-1.096,12.395-4.608
	c3.01-1.738,8.826-3.461,10.416-12.163"/>
<line fill="none" stroke="#000000" stroke-width="1.4173" stroke-linecap="round" stroke-linejoin="round" x1="452.656" y1="146.574" x2="452.656" y2="150.794"/>
<path fill="none" stroke="#000000" stroke-width="1.4173" stroke-linecap="round" stroke-linejoin="round" d="M313.287,202.683
	c7.193-0.195,8.891-6.258,16.367-6.258c5.277,0,7.148,0.303,11.703-2.327c4.557-2.63,39.381-23.206,41.334-24.333
	s3.311-0.96,3.875-0.96"/>
<path fill="none" stroke="#000000" stroke-width="2.126" stroke-linecap="round" stroke-linejoin="round" d="M310.768,209.047
	c4.129-2.384,14.152-7.965,21.32-7.965c2.025,0,3.377,0.082,5.332-1.047s40.271-22.938,40.271-22.938"/>
<path fill="none" stroke="#000000" stroke-width="2.126" stroke-linecap="round" stroke-linejoin="round" d="M377.691,181.708
	c0,0,0-1.939,0-2.417c0-2.569,1.76-3.819,4.166-5.913s46.5-38.531,48.125-40.156s3.479-3.367,0.768-6.079
	c-2.047-2.047-2.713-1.992-2.713-4.813s0-3.265,0-5.533s-0.387-4.315,0.498-5.201c0.887-0.886,2.326-2.822,3.1-3.596
	c0.775-0.774,2.49-1.937,2.49,2.766"/>
<path fill="none" stroke="#000000" stroke-width="2.126" stroke-linecap="round" stroke-linejoin="round" d="M379.369,179.298
	c0-1.225,0.564-1.979,4.523-5.183c3.957-3.204,45.037-36.232,47.799-40.517c1.645-2.553,1.551-2.905,1.551-5.564
	s-0.43-4.529-0.43-6.111s-0.717-1.996-1.807-2.625s-1.09-0.395-1.09,0.684s0,3.594,0,3.594l3.252,2.511"/>
<path fill="none" stroke="#000000" stroke-width="2.126" stroke-linecap="round" stroke-linejoin="round" d="M427.955,113.801
	l20.508,11.84l4.895,11.374c0,0,9.725-8.268,10.893-9.435c1.166-1.167,1.166-1.232,1.166-3.315s0-7.334,0-8.667
	s-0.092-3.357-3.225-5.167s-11.242-6.49-12.764-7.369c-1.523-0.879-3.486-0.631-5.32-0.631c-1.832,0-2.916,0.167-4.332,2.5
	c-1.418,2.333-3.168,4.583-3.168,4.583"/>
</svg>