<?xml version="1.0" standalone="no"?><!DOCTYPE svg PUBLIC "-//W3C//DTD SVG 1.1//EN" "http://www.w3.org/Graphics/SVG/1.1/DTD/svg11.dtd"><svg t="1512986890212" class="icon" style="" viewBox="0 0 1024 1024" version="1.1" xmlns="http://www.w3.org/2000/svg" p-id="962" xmlns:xlink="http://www.w3.org/1999/xlink" width="200" height="200"><defs><style type="text/css"></style></defs><path d="M1004.60032 278.8352c-0.16896-32.74752-27.2128-59.21792-60.32384-59.04896l-302.2848 1.55136-5.48864-14.97088c-36.80256-100.20352-106.01472-123.58656-157.55264-125.52704l-391.30624 2.01216C54.55872 83.02592 27.75552 109.7728 27.92448 142.52032l3.8144 742.03136c0.16896 32.7168 27.24864 59.21792 60.32896 59.04896l855.90528-4.39808c33.08032-0.16896 59.88352-26.91584 59.71456-59.66336L1004.60032 278.8352zM73.24672 224.35328l-0.36352-53.67296c-0.23552-46.14144 16.57856-39.72608 86.27712-40.0896l249.24672-1.28c105.62048-0.54272 133.2224 22.05696 153.7536 57.29792l15.32928 35.1488L73.24672 224.35328zM273.00352 675.5328c-61.89056-1.1264-93.96224-23.05024-96.20992-65.82784l60.76416 0c2.2528 15.7696 14.06464 24.21248 35.44576 25.3184 20.25472 0 30.38208-7.8592 30.38208-23.6288-1.1264-12.38016-15.75424-21.36576-43.88352-27.008-55.13728-10.12736-81.58208-33.76128-79.3344-70.89664 2.2528-38.24128 33.19808-59.63776 92.83584-64.13824 55.13728 0 84.39808 21.38112 87.77216 64.13824L301.70112 513.48992c-1.1264-13.50144-10.69056-20.81792-28.6976-21.94432-16.88064 0-25.3184 6.75328-25.3184 20.25472 0 9.02144 14.06464 16.88064 42.19904 23.6288 54.01088 14.62784 81.01888 38.81984 81.01888 72.58112C367.52896 648.5248 334.89408 671.04768 273.00352 675.5328zM538.0096 672.15872 467.11808 672.15872 386.0992 454.41024l69.20192 0 48.95232 148.53632 50.6368-148.53632 60.76416 0L538.0096 672.15872zM858.71616 651.89888c2.2528 69.76512-33.19296 104.06912-106.33728 102.9632-66.39104 0-100.15232-23.6288-101.27872-70.89152l60.76416 0c2.2528 17.98656 14.62784 27.008 37.13536 27.008 36.00896 0 50.64192-24.21248 43.88864-72.58112-12.38016 19.1488-32.63488 28.6976-60.76416 28.6976-55.13728-3.37408-84.96128-39.38816-89.46176-108.02688 4.50048-69.77024 34.88256-106.33728 91.14624-109.71648 29.25568 0 48.95232 10.12736 59.07968 30.38208l0-25.3184 65.82784 0L858.71616 651.89888z" p-id="963"></path><path d="M750.68928 491.5456c-28.1344 0-42.19904 23.07072-42.19904 69.20704 0 42.7776 14.06464 64.13824 42.19904 64.13824s42.19904-21.36064 42.19904-64.13824C792.88832 514.61632 778.82368 491.5456 750.68928 491.5456z" p-id="964"></path></svg>